<?xml version="1.0" encoding="UTF-8" standalone="no"?>
<!-- Created with Inkscape (http://www.inkscape.org/) -->

<svg
   sodipodi:docname="estore-logo.svg"
   inkscape:version="1.1.1 (3bf5ae0, 2021-09-20)"
   width="256mm"
   height="256mm"
   viewBox="0 0 256 256"
   version="1.1"
   id="svg5"
   xmlns:inkscape="http://www.inkscape.org/namespaces/inkscape"
   xmlns:sodipodi="http://sodipodi.sourceforge.net/DTD/sodipodi-0.dtd"
   xmlns="http://www.w3.org/2000/svg"
   xmlns:svg="http://www.w3.org/2000/svg">
  <sodipodi:namedview
     id="namedview7"
     pagecolor="#ffffff"
     bordercolor="#666666"
     borderopacity="1.0"
     inkscape:pageshadow="2"
     inkscape:pageopacity="0.0"
     inkscape:pagecheckerboard="0"
     inkscape:document-units="mm"
     showgrid="false"
     fit-margin-top="0"
     fit-margin-left="0"
     fit-margin-right="0"
     fit-margin-bottom="0"
     inkscape:zoom="0.46929649"
     inkscape:cx="447.47831"
     inkscape:cy="676.54458"
     inkscape:window-width="1888"
     inkscape:window-height="1044"
     inkscape:window-x="32"
     inkscape:window-y="0"
     inkscape:window-maximized="1"
     inkscape:current-layer="layer1" />
  <defs
     id="defs2">
    <linearGradient
       id="linearGradient4849"
       inkscape:swatch="solid">
      <stop
         style="stop-color:#16aa9a;stop-opacity:1;"
         offset="0"
         id="stop4847" />
    </linearGradient>
  </defs>
  <g
     inkscape:label="Layer 1"
     inkscape:groupmode="layer"
     id="layer1"
     style="display:inline">
    <path
       id="rect846-4-0-2"
       style="display:inline;fill:#16aa9a;fill-opacity:1;stroke-width:0.408228;-inkscape-stroke:none;stop-color:#000000"
       d="M 126.95814,8.7963623 C 117.11916,8.9054534 107.12399,10.240368 97.16151,12.909806 56.715927,23.747167 26.83348,53.909123 14.728817,90.785671 L 49.58612,87.754332 C 60.530178,66.431027 80.126781,49.659486 105.20805,42.93898 c 7.36311,-1.97294 14.75007,-2.960016 22.02191,-3.040639 28.04182,-0.31092 54.31624,12.900921 70.95846,34.931717 L 233.0912,71.794067 C 212.25308,32.604691 171.19003,8.305934 126.95814,8.7963623 Z" />
    <path
       id="rect846-4"
       style="fill:#138e80;fill-opacity:1;stroke-width:1.54291;-inkscape-stroke:none;stop-color:#000000"
       d="m 847.77148,218.23633 -147.49804,12.82812 c 17.91425,15.3852 34.34751,32.64542 48.78515,51.75782 l 131.91602,-11.47461 c -9.90059,-18.61963 -21.01466,-36.34476 -33.20313,-53.11133 z m -621.26367,54.0332 -146.992185,12.7832 C 70.293154,303.8239 62.216841,323.17598 55.667969,343.12695 L 187.41211,331.66992 c 10.83979,-21.12015 23.97959,-41.01728 39.0957,-59.40039 z"
       transform="scale(0.26458333)" />
    <path
       id="rect846"
       style="display:inline;fill:#00f1d6;fill-opacity:1;stroke-width:0.43855;-inkscape-stroke:none;stop-color:#000000"
       d="M 237.40515,61.346127 8.6340981,81.545926 C 3.0599065,95.934658 0,111.59617 0,127.99994 c 0,70.912 57.087939,127.99993 127.99994,127.99993 70.912,0 127.99993,-57.08793 127.99993,-127.99993 0,-24.45374 -6.79124,-47.262152 -18.59472,-66.653813 z" />
    <rect
       style="display:inline;fill:#16aa9a;fill-opacity:1;stroke-width:0.264583;-inkscape-stroke:none;stop-color:#000000"
       id="rect13982"
       width="112.50108"
       height="27.88588"
       x="74.669762"
       y="92.363716"
       ry="13.942939" />
    <rect
       style="display:inline;fill:#16aa9a;fill-opacity:1;stroke-width:0.264583;-inkscape-stroke:none;stop-color:#000000"
       id="rect13982-8"
       width="112.50108"
       height="27.88588"
       x="74.669762"
       y="189.39824"
       ry="13.942939" />
    <rect
       style="display:inline;fill:#16aa9a;fill-opacity:1;stroke-width:0.208385;-inkscape-stroke:none;stop-color:#000000"
       id="rect13982-1"
       width="83.735153"
       height="27.88588"
       x="74.669762"
       y="140.59869"
       ry="13.942939" />
    <rect
       style="display:inline;fill:#14988a;fill-opacity:1;stroke-width:0.208385;-inkscape-stroke:none;stop-color:#000000"
       id="rect13982-1-5"
       width="28.592224"
       height="27.88588"
       x="129.81268"
       y="140.59869"
       ry="12.812758" />
    <rect
       style="display:inline;fill:#14988a;fill-opacity:1;stroke-width:0.208385;-inkscape-stroke:none;stop-color:#000000"
       id="rect13982-1-5-0"
       width="28.592224"
       height="27.88588"
       x="158.57861"
       y="92.363716"
       ry="12.812758" />
    <rect
       style="display:inline;fill:#14988a;fill-opacity:1;stroke-width:0.208385;-inkscape-stroke:none;stop-color:#000000"
       id="rect13982-1-5-6"
       width="28.592224"
       height="27.88588"
       x="158.57861"
       y="189.39824"
       ry="12.812758" />
  </g>
</svg>
